<?xml version="1.0" encoding="UTF-8"?>
<svg width="100px" height="56px" viewBox="0 0 100 56" version="1.1" xmlns="http://www.w3.org/2000/svg" xmlns:xlink="http://www.w3.org/1999/xlink">
    <!-- Generator: Sketch 58 (84663) - https://sketch.com -->
    <title>card-icon2</title>
    <desc>Created with Sketch.</desc>
    <defs>
        <linearGradient x1="-57.5270968%" y1="50.1241953%" x2="232.39121%" y2="50.1241953%" id="linearGradient-1">
            <stop stop-color="#007940" offset="0%"></stop>
            <stop stop-color="#00873F" offset="22.85%"></stop>
            <stop stop-color="#40A737" offset="74.33%"></stop>
            <stop stop-color="#5CB531" offset="100%"></stop>
        </linearGradient>
        <linearGradient x1="0.182516704%" y1="49.95997%" x2="100.273441%" y2="49.95997%" id="linearGradient-2">
            <stop stop-color="#007940" offset="0%"></stop>
            <stop stop-color="#00873F" offset="22.85%"></stop>
            <stop stop-color="#40A737" offset="74.33%"></stop>
            <stop stop-color="#5CB531" offset="100%"></stop>
        </linearGradient>
        <linearGradient x1="-62.8015845%" y1="49.8578253%" x2="253.671294%" y2="49.8578253%" id="linearGradient-3">
            <stop stop-color="#007940" offset="0%"></stop>
            <stop stop-color="#00873F" offset="22.85%"></stop>
            <stop stop-color="#40A737" offset="74.33%"></stop>
            <stop stop-color="#5CB531" offset="100%"></stop>
        </linearGradient>
        <linearGradient x1="0.175556793%" y1="50.0058048%" x2="101.808162%" y2="50.0058048%" id="linearGradient-4">
            <stop stop-color="#1F286F" offset="0%"></stop>
            <stop stop-color="#004E94" offset="47.51%"></stop>
            <stop stop-color="#0066B1" offset="82.61%"></stop>
            <stop stop-color="#006FBC" offset="100%"></stop>
        </linearGradient>
        <linearGradient x1="-0.575855512%" y1="49.9142191%" x2="98.13299%" y2="49.9142191%" id="linearGradient-5">
            <stop stop-color="#6C2C2F" offset="0%"></stop>
            <stop stop-color="#882730" offset="17.35%"></stop>
            <stop stop-color="#BE1833" offset="57.31%"></stop>
            <stop stop-color="#DC0436" offset="85.85%"></stop>
            <stop stop-color="#E60039" offset="100%"></stop>
        </linearGradient>
    </defs>
    <g id="Page-1" stroke="none" stroke-width="1" fill="none" fill-rule="evenodd">
        <g id="buy" transform="translate(-943.000000, -854.000000)">
            <g id="编组-9" transform="translate(523.000000, 854.000000)">
                <g id="card-icon2" transform="translate(420.000000, 0.000000)">
                    <rect id="矩形备份-2" stroke="#E6E7EB" fill="#FFFFFF" x="0.5" y="0.5" width="99" height="55" rx="2"></rect>
                    <g id="JCB_logo-2" transform="translate(28.000000, 12.000000)" fill-rule="nonzero">
                        <g id="JCB_logo">
                            <path d="M32.248225,19.6998742 L35.2563913,19.6998742 C35.3423389,19.6998742 35.5428834,19.671225 35.628831,19.671225 C36.201815,19.5566282 36.6888515,19.0409425 36.6888515,18.3247124 C36.6888515,17.6371316 36.201815,17.1214459 35.628831,16.9781999 C35.5428834,16.9495507 35.3709881,16.9495507 35.2563913,16.9495507 L32.248225,16.9495507 L32.248225,19.6998742 Z" id="path6338" fill="url(#linearGradient-1)"></path>
                            <path d="M34.9126009,0.705452592 C32.0476806,0.705452592 29.6984459,3.02603803 29.6984459,5.91960754 L29.6984459,11.3343069 L37.0612911,11.3343069 C37.2331863,11.3343069 37.4337308,11.3343069 37.5769768,11.3629561 C39.2386305,11.4489037 40.4705463,12.3083798 40.4705463,13.7981384 C40.4705463,14.9727557 39.6397194,15.9754778 38.0926624,16.1760222 L38.0926624,16.2333206 C39.7829654,16.3479174 41.0721795,17.2933411 41.0721795,18.7544505 C41.0721795,20.3301566 39.6397194,21.361528 37.748872,21.361528 L29.6697967,21.361528 L29.6697967,31.9617331 L37.3191339,31.9617331 C40.1840542,31.9617331 42.5332889,29.6411476 42.5332889,26.7475781 L42.5332889,0.705452592 L34.9126009,0.705452592 Z" id="path6349" fill="url(#linearGradient-2)"></path>
                            <path d="M36.3164118,14.1419288 C36.3164118,13.4543479 35.8293754,12.9959607 35.2563913,12.9100131 C35.1990929,12.9100131 35.0558469,12.8813639 34.9698993,12.8813639 L32.248225,12.8813639 L32.248225,15.4024937 L34.9698993,15.4024937 C35.0558469,15.4024937 35.2277421,15.4024937 35.2563913,15.3738445 C35.8293754,15.2878969 36.3164118,14.8295097 36.3164118,14.1419288 L36.3164118,14.1419288 Z" id="path6360" fill="url(#linearGradient-3)"></path>
                            <path d="M6.09150268,0.705452592 C3.22658238,0.705452592 0.877347736,3.02603803 0.877347736,5.91960754 L0.877347736,18.7830997 C2.33845709,19.4993298 3.85686485,19.957717 5.37527261,19.957717 C7.18017239,19.957717 8.1542453,18.8690473 8.1542453,17.3792887 L8.1542453,11.3056577 L12.623521,11.3056577 L12.623521,17.3506395 C12.623521,19.6998742 11.1624116,21.6193708 6.20609949,21.6193708 C3.19793318,21.6193708 0.848698533,20.9604391 0.848698533,20.9604391 L0.848698533,31.9330839 L8.49803573,31.9330839 C11.362956,31.9330839 13.7121907,29.6124984 13.7121907,26.7189289 L13.7121907,0.705452592 L6.09150268,0.705452592 Z" id="path6371" fill="url(#linearGradient-4)"></path>
                            <path d="M20.5020518,0.705452592 C17.6371315,0.705452592 15.2878968,3.02603803 15.2878968,5.91960754 L15.2878968,12.7381178 C16.6057602,11.6207989 18.8976964,10.9045689 22.5934436,11.0764641 C24.5702386,11.1624117 26.6902796,11.7067465 26.6902796,11.7067465 L26.6902796,13.9127352 C25.6302591,13.3684003 24.3696942,12.8813639 22.7366896,12.7667671 C19.9290677,12.5662226 18.2387648,13.9413844 18.2387648,16.3479174 C18.2387648,18.7830997 19.9290677,20.1582614 22.7366896,19.9290678 C24.3696942,19.814471 25.6302591,19.2987853 26.6902796,18.7830997 L26.6902796,20.9890883 C26.6902796,20.9890883 24.5988878,21.5334232 22.5934436,21.6193708 C18.8976964,21.791266 16.6057602,21.0750359 15.2878968,19.957717 L15.2878968,31.9903823 L22.937234,31.9903823 C25.8021543,31.9903823 28.151389,29.6697968 28.151389,26.7762273 L28.151389,0.705452592 L20.5020518,0.705452592 Z" id="path6384" fill="url(#linearGradient-5)"></path>
                        </g>
                    </g>
                </g>
            </g>
        </g>
    </g>
</svg>