<?xml version="1.0" encoding="UTF-8"?>
<svg width="100px" height="56px" viewBox="0 0 100 56" version="1.1" xmlns="http://www.w3.org/2000/svg" xmlns:xlink="http://www.w3.org/1999/xlink">
    <!-- Generator: Sketch 58 (84663) - https://sketch.com -->
    <title>card-icon1</title>
    <desc>Created with Sketch.</desc>
    <defs>
        <polygon id="path-1" points="0.0106430155 17.5609756 71.7789799 17.5609756 71.7789799 0.145631929 0.0106430155 0.145631929"></polygon>
        <polygon id="path-3" points="0.0106430155 17.5609756 71.7789799 17.5609756 71.7789799 0.145631929 0.0106430155 0.145631929"></polygon>
        <polygon id="path-5" points="0.0106430155 17.5609756 71.7789799 17.5609756 71.7789799 0.145631929 0.0106430155 0.145631929"></polygon>
        <polygon id="path-7" points="0.0106430155 17.5609756 71.7789799 17.5609756 71.7789799 0.145631929 0.0106430155 0.145631929"></polygon>
    </defs>
    <g id="Page-1" stroke="none" stroke-width="1" fill="none" fill-rule="evenodd">
        <g id="buy" transform="translate(-613.000000, -854.000000)">
            <g id="编组-9" transform="translate(523.000000, 854.000000)">
                <g id="card-icon1" transform="translate(90.000000, 0.000000)">
                    <rect id="矩形" stroke="#E6E7EB" fill="#FFFFFF" x="0.5" y="0.5" width="99" height="55" rx="2"></rect>
                    <g id="pp_fc_hl" transform="translate(14.000000, 19.000000)">
                        <path d="M55.733215,7.7362306 C55.5175165,9.15299336 54.4354768,9.15299336 53.3889135,9.15299336 L52.7934369,9.15299336 L53.211175,6.50784922 C53.2363636,6.3480266 53.3741906,6.23024391 53.536142,6.23024391 L53.8091353,6.23024391 C54.5213303,6.23024391 55.1943237,6.23024391 55.5412861,6.63609755 C55.748825,6.8789357 55.8116186,7.23884701 55.733215,7.7362306 L55.733215,7.7362306 Z M55.2776941,4.0400887 L51.3307317,4.0400887 C51.0609313,4.0400887 50.8312194,4.23645234 50.7891796,4.50305985 L49.1932595,14.6233259 C49.1616852,14.8228825 49.316009,15.003459 49.5182262,15.003459 L51.5432374,15.003459 C51.7321507,15.003459 51.8930377,14.8659867 51.922306,14.6793792 L52.374989,11.8103769 C52.4170288,11.5437694 52.6467407,11.3474058 52.9165411,11.3474058 L54.165499,11.3474058 C56.7652329,11.3474058 58.2655431,10.089224 58.6577382,7.59574279 C58.8342351,6.50518847 58.6648338,5.64824833 58.1541462,5.04833701 C57.5929048,4.38882483 56.5981376,4.0400887 55.2776941,4.0400887 L55.2776941,4.0400887 Z" id="Fill-1" fill="#2790C3" fill-rule="nonzero"></path>
                        <path d="M27.5829712,7.7362306 C27.3672727,9.15299336 26.2852328,9.15299336 25.238847,9.15299336 L24.6433703,9.15299336 L25.0609313,6.50784922 C25.0862971,6.3480266 25.2241242,6.23024391 25.385898,6.23024391 L25.6588914,6.23024391 C26.3712639,6.23024391 27.0442572,6.23024391 27.3910421,6.63609755 C27.5987583,6.8789357 27.6615521,7.23884701 27.5829712,7.7362306 L27.5829712,7.7362306 Z M27.1276275,4.0400887 L23.1806652,4.0400887 C22.9108648,4.0400887 22.681153,4.23645234 22.6391131,4.50305985 L21.0430155,14.6233259 C21.0116186,14.8228825 21.1659424,15.003459 21.3679823,15.003459 L23.2525055,15.003459 C23.522306,15.003459 23.7521951,14.8070953 23.794235,14.5406652 L24.2249224,11.8103769 C24.2667849,11.5437694 24.4966741,11.3474058 24.7664745,11.3474058 L26.0154324,11.3474058 C28.6149889,11.3474058 30.1154766,10.089224 30.5076717,7.59574279 C30.6841686,6.50518847 30.5147672,5.64824833 30.0040797,5.04833701 C29.4426609,4.38882483 28.4478936,4.0400887 27.1276275,4.0400887 L27.1276275,4.0400887 Z" id="Fill-2" fill="#27346A" fill-rule="nonzero"></path>
                        <path d="M36.2903769,11.3694013 C36.1078493,12.4493126 35.2505543,13.1742794 34.1571618,13.1742794 C33.6090465,13.1742794 33.1701995,12.9979601 32.8881597,12.6641242 C32.608603,12.3331264 32.5034145,11.8616408 32.5919292,11.3365854 C32.7622174,10.2664302 33.6331706,9.51804878 34.7098891,9.51804878 C35.246652,9.51804878 35.6823059,9.69614189 35.9700222,10.0329933 C36.2595123,10.3723282 36.3732152,10.8470067 36.2903769,11.3694013 L36.2903769,11.3694013 Z M38.9241685,7.6909978 L37.0343236,7.6909978 C36.8723725,7.6909978 36.7345455,7.80860309 36.7093569,7.9687805 L36.6261641,8.4972062 L36.4940134,8.30563194 C36.0847894,7.71157428 35.1726828,7.51308205 34.2618181,7.51308205 C32.173836,7.51308205 30.3902438,9.09534369 30.0431043,11.3145898 C29.8623503,12.4216408 30.1188471,13.4795565 30.7466075,14.2180044 C31.3232816,14.8964967 32.1463414,15.1788913 33.1269179,15.1788913 C34.8099334,15.1788913 35.7433259,14.0977384 35.7433259,14.0977384 L35.6588912,14.6229712 C35.6273172,14.8227051 35.7816407,15.003459 35.983858,15.003459 L37.6858537,15.003459 C37.955654,15.003459 38.185366,14.8072727 38.2274058,14.5406652 L39.2491352,8.07113081 C39.2807096,7.8713969 39.1263858,7.6909978 38.9241685,7.6909978 L38.9241685,7.6909978 Z" id="Fill-3" fill="#27346A" fill-rule="nonzero"></path>
                        <path d="M64.4404434,11.3694013 C64.2579158,12.4493126 63.4007982,13.1742794 62.3074057,13.1742794 C61.7591131,13.1742794 61.3204434,12.9979601 61.0382262,12.6641242 C60.7586696,12.3331264 60.6534811,11.8616408 60.7421731,11.3365854 C60.9122839,10.2664302 61.7832372,9.51804878 62.860133,9.51804878 C63.3967185,9.51804878 63.8325498,9.69614189 64.1200888,10.0329933 C64.4095788,10.3723282 64.5232815,10.8470067 64.4404434,11.3694013 L64.4404434,11.3694013 Z M67.074235,7.6909978 L65.1843901,7.6909978 C65.022439,7.6909978 64.884612,7.80860309 64.8594234,7.9687805 L64.7762306,8.4972062 L64.6442573,8.30563194 C64.2348559,7.71157428 63.3227494,7.51308205 62.4118847,7.51308205 C60.3240799,7.51308205 58.5403103,9.09534369 58.1931708,11.3145898 C58.0125942,12.4216408 58.269091,13.4795565 58.896674,14.2180044 C59.4735255,14.8964967 60.2964079,15.1788913 61.2769844,15.1788913 C62.9599999,15.1788913 63.8933924,14.0977384 63.8933924,14.0977384 L63.8091351,14.6229712 C63.7773837,14.8227051 63.9317072,15.003459 64.1341019,15.003459 L65.8359202,15.003459 C66.1057206,15.003459 66.3354325,14.8072727 66.3776497,14.5406652 L67.3992018,8.07113081 C67.4307761,7.8713969 67.2764523,7.6909978 67.074235,7.6909978 L67.074235,7.6909978 Z" id="Fill-4" fill="#2790C3" fill-rule="nonzero"></path>
                        <g id="Group-10">
                            <g id="Fill-5-Clipped">
                                <mask id="mask-2" fill="white">
                                    <use xlink:href="#path-1"></use>
                                </mask>
                                <g id="path-1"></g>
                                <path d="M48.9898004,7.6909978 L47.0901995,7.6909978 C46.9085587,7.6909978 46.7386253,7.78110863 46.6366297,7.93135256 L44.0163193,11.7906874 L42.9057205,8.0821286 C42.8363637,7.85011086 42.6227939,7.6909978 42.3804878,7.6909978 L40.5131707,7.6909978 C40.2877162,7.6909978 40.128958,7.91272727 40.2016853,8.12611973 L42.2933924,14.2657206 L40.326031,17.0417738 C40.1715299,17.2596009 40.3274502,17.5609756 40.5944125,17.5609756 L42.4922394,17.5609756 C42.6721065,17.5609756 42.8404434,17.472816 42.9429711,17.324878 L49.2603105,8.20753879 C49.4114412,7.98935699 49.2553437,7.6909978 48.9898004,7.6909978" id="Fill-5" fill="#27346A" fill-rule="nonzero" mask="url(#mask-2)"></path>
                            </g>
                            <g id="Fill-7-Clipped">
                                <mask id="mask-4" fill="white">
                                    <use xlink:href="#path-3"></use>
                                </mask>
                                <g id="path-1"></g>
                                <path d="M69.3018181,4.31804877 L67.6819513,14.6233259 C67.6505543,14.8230599 67.8048781,15.003459 68.006918,15.003459 L69.6361861,15.003459 C69.9059868,15.003459 70.1356984,14.8070953 70.1777382,14.5406652 L71.7749002,4.42039911 C71.8064745,4.2206652 71.6521507,4.0400887 71.4499335,4.0400887 L69.6267849,4.0400887 C69.4648338,4.0400887 69.3270067,4.15804879 69.3018181,4.31804877" id="Fill-7" fill="#2790C3" fill-rule="nonzero" mask="url(#mask-4)"></path>
                            </g>
                            <g id="Fill-8-Clipped">
                                <mask id="mask-6" fill="white">
                                    <use xlink:href="#path-5"></use>
                                </mask>
                                <g id="path-1"></g>
                                <path d="M7.47707318,16.843459 L8.00762748,13.4792018 L8.04186252,13.2927716 C8.06740578,13.130643 8.15042128,12.9823503 8.27547673,12.8755654 C8.40053216,12.7687805 8.56000001,12.7098891 8.72443458,12.7098891 L9.14572062,12.7098891 C9.84798225,12.7098891 10.4931264,12.6348559 11.0634146,12.486918 C11.6718404,12.329224 12.2130377,12.0835477 12.6717517,11.7573392 C13.1581375,11.4114412 13.5666519,10.9642572 13.8861197,10.4285588 C14.2231486,9.86341463 14.4705987,9.18297117 14.6217295,8.40638581 C14.7552993,7.72062085 14.7803104,7.10669622 14.696408,6.58146342 C14.6075388,6.02660754 14.3937916,5.55317072 14.0611973,5.17392462 C13.8595122,4.94421287 13.6014191,4.74518848 13.2941907,4.58235032 L13.286918,4.57844789 L13.2867406,4.56957872 C13.3940576,3.88505543 13.3899778,3.31405765 13.2745011,2.82252772 C13.1584922,2.32993348 12.9236364,1.88665189 12.5559202,1.46767184 C11.7940576,0.599556541 10.408337,0.159290466 8.43742794,0.159290466 L3.02456763,0.159290466 C2.84363636,0.159290466 2.66802661,0.224035477 2.53037694,0.341640799 C2.39272727,0.45924612 2.30155211,0.622616409 2.27317073,0.801419069 L0.0193348115,15.0937472 C-0.00124168514,15.2241242 0.0361862529,15.3566297 0.122039911,15.456674 C0.20789357,15.5572506 0.33277162,15.6149002 0.464745012,15.6149002 L3.82279379,15.6149002 L3.81977827,15.6308647 L3.5891796,17.0932151 C3.57144123,17.206918 3.60407982,17.3222173 3.67875831,17.40949 C3.7534368,17.4969401 3.86217296,17.5473171 3.9771175,17.5473171 L6.7936142,17.5473171 C6.95166299,17.5473171 7.10474502,17.4907317 7.22483371,17.3880266 C7.34492239,17.2853215 7.42474501,17.1428825 7.44940133,16.9869623 L7.47707318,16.843459" id="Fill-8" fill="#27346A" fill-rule="nonzero" mask="url(#mask-6)"></path>
                            </g>
                            <g id="Fill-9-Clipped">
                                <mask id="mask-8" fill="white">
                                    <use xlink:href="#path-7"></use>
                                </mask>
                                <g id="path-1"></g>
                                <path d="M5.54749446,4.58820398 C5.58314857,4.36168513 5.72842572,4.17631929 5.92407983,4.08248336 C6.01312639,4.03991131 6.11246119,4.01614191 6.21658537,4.01614191 L10.4594235,4.01614191 C10.9621286,4.01614191 11.430776,4.04913527 11.8593348,4.11813746 C11.9817295,4.13782706 12.1007539,4.16053215 12.2165854,4.18625277 C12.3324169,4.2119734 12.4447007,4.24053214 12.5534368,4.27246121 C12.6078936,4.28824835 12.661286,4.30492238 12.7139689,4.32248336 C12.9243459,4.3923725 13.1201774,4.47467848 13.3003991,4.57011088 C13.5129047,3.21543237 13.29898,2.29356985 12.5662084,1.45862528 C11.7594678,0.539423502 10.3020843,0.145631929 8.43742794,0.145631929 L3.02456763,0.145631929 C2.64354767,0.145631929 2.31911308,0.422882482 2.25968958,0.799290465 L0.00585365854,15.0916186 C-0.038669623,15.3736585 0.179334812,15.6285588 0.464745012,15.6285588 L3.80629712,15.6285588 L5.54749446,4.58820398" id="Fill-9" fill="#27346A" fill-rule="nonzero" mask="url(#mask-8)"></path>
                            </g>
                        </g>
                        <path d="M13.3003991,4.57011088 L13.3003991,4.57011088 C13.2842572,4.6735255 13.2663415,4.77871396 13.2450554,4.88709536 C12.5314412,8.55201773 10.089224,9.81906872 6.97011088,9.81906872 L5.38181819,9.81906872 C5.00079822,9.81906872 4.6790244,10.0964967 4.6196009,10.4729046 L3.57569845,17.0912639 C3.53685143,17.3378271 3.72753881,17.5609756 3.9771175,17.5609756 L6.79379157,17.5609756 C7.12709535,17.5609756 7.4109091,17.3184923 7.46288248,16.9890909 L7.49055433,16.8459424 L8.02110863,13.4813304 L8.05534367,13.2954324 C8.10731707,12.9660311 8.39113083,12.7235477 8.72443458,12.7235477 L9.14572062,12.7235477 C11.8744124,12.7235477 14.0109978,11.6149002 14.635388,8.40886917 C14.8961419,7.06926828 14.7613304,5.95104214 14.0714856,5.16487806 C13.8628825,4.92718405 13.6031929,4.73046562 13.3003991,4.57011088" id="Fill-11" fill="#2790C3" fill-rule="nonzero"></path>
                        <path d="M12.5534368,4.27246121 C12.4447007,4.24053214 12.3324169,4.2119734 12.2165854,4.18625277 C12.1007539,4.16053215 11.9817295,4.13782706 11.8593348,4.11813746 C11.430776,4.04913527 10.9621286,4.01614191 10.4594235,4.01614191 L6.21658537,4.01614191 C6.11246119,4.01614191 6.01312639,4.03991131 5.92407983,4.08248336 C5.72842572,4.17631929 5.58314857,4.36168513 5.54749446,4.58820398 L4.64567628,10.3059867 L4.6196009,10.4729046 C4.6790244,10.0964967 5.00079822,9.81906872 5.38181819,9.81906872 L6.97011088,9.81906872 C10.089224,9.81906872 12.5314412,8.55201773 13.2450554,4.88709536 C13.2663415,4.77871396 13.2842572,4.6735255 13.3003991,4.57011088 C13.1201774,4.47467848 12.9243459,4.3923725 12.7139689,4.32248336 C12.661286,4.30492238 12.6078936,4.28824835 12.5534368,4.27246121" id="Fill-12" fill="#1F264F" fill-rule="nonzero"></path>
                    </g>
                </g>
            </g>
        </g>
    </g>
</svg>