<?xml version="1.0" encoding="UTF-8"?>
<svg width="100px" height="56px" viewBox="0 0 100 56" version="1.1" xmlns="http://www.w3.org/2000/svg" xmlns:xlink="http://www.w3.org/1999/xlink">
    <!-- Generator: Sketch 58 (84663) - https://sketch.com -->
    <title>card-icon7</title>
    <desc>Created with Sketch.</desc>
    <g id="Page-1" stroke="none" stroke-width="1" fill="none" fill-rule="evenodd">
        <g id="buy" transform="translate(-833.000000, -854.000000)">
            <g id="编组-9" transform="translate(523.000000, 854.000000)">
                <g id="card-icon7" transform="translate(310.000000, 0.000000)">
                    <rect id="矩形备份-7" stroke="#E6E7EB" fill="#FFFFFF" x="0.5" y="0.5" width="99" height="55" rx="2"></rect>
                    <g id="Visa_Debit_SVG_logo" transform="translate(20.000000, 18.000000)" fill-rule="nonzero">
                        <path d="M0.204367862,0.749348828 C1.01382488,0.332598678 1.93949108,0.500901623 2.8090563,0.484872771 C4.80064115,0.53696654 6.79623322,0.436786215 8.78781807,0.524944901 C9.68543378,0.520937688 10.4548187,1.2662793 10.5790423,2.13584452 C11.2041675,5.16529754 11.777199,8.20677219 12.3903025,11.2442396 C11.3764777,7.6858345 8.69965939,4.78060509 5.55399719,2.9332799 C3.89100381,1.93548387 2.0356642,1.35443799 0.204367862,0.749348828 Z" id="路径" fill="#F4A929"></path>
                        <path d="M17.5315568,0.492887197 C19.2586656,0.512923262 20.9817672,0.504908836 22.7048688,0.492887197 C20.0841515,6.75616109 17.6397516,13.0915648 14.9629333,19.3307954 C13.2799038,19.2787017 11.5968744,19.3027449 9.91384492,19.3027449 C8.42316169,13.8569425 7.03265879,8.38308956 5.55399719,2.9332799 C8.69965939,4.78060509 11.3764777,7.6858345 12.3903025,11.2442396 C12.5425766,11.9334803 12.6507714,12.6387497 12.7830094,13.3360048 C14.3538369,9.05229413 15.9447005,4.77259066 17.5315568,0.492887197 Z" id="路径" fill="#1B4DA2"></path>
                        <path d="M24.6403526,0.484872771 C26.2632739,0.49689441 27.8861952,0.49689441 29.5091164,0.484872771 C28.5113204,6.7601683 27.4614306,13.0274494 26.4876778,19.3067522 C24.872771,19.3107594 23.2578642,19.3107594 21.6389501,19.3067522 C22.5686235,13.0234422 23.6625927,6.76417552 24.6403526,0.484872771 Z" id="路径" fill="#1B4DA2"></path>
                        <path d="M34.1254258,1.6670006 C37.0346624,-0.244439992 40.8375075,-0.18833901 44.0552995,0.869565217 C43.9070327,2.26006812 43.6746143,3.63854939 43.4341815,5.01302344 C41.7231016,4.19154478 39.7275095,3.8268884 37.8681627,4.30374674 C36.990583,4.51212182 36.125025,5.60208375 36.8543378,6.4195552 C38.3530355,7.95431777 40.7132839,8.3029453 42.1238229,9.97395312 C43.7587658,11.5728311 43.6986576,14.2656782 42.5846524,16.1370467 C41.4065318,18.1126027 39.1384492,19.1464636 36.9304749,19.4429974 C34.4339812,19.7034662 31.8332999,19.5471849 29.4930876,18.5814466 C29.7415348,17.1789221 29.9499098,15.7683831 30.2023643,14.3658585 C32.2260068,15.4117411 34.5742336,15.936686 36.8302945,15.4357844 C37.5956722,15.1793228 38.3850932,14.5501903 38.3169705,13.6525746 C38.0645161,12.5826488 36.9465037,12.1258265 36.0769385,11.6409537 C34.3899018,10.8114606 32.5746343,9.79362853 31.8172711,7.97034662 C30.875576,5.66619916 32.1218193,2.96934482 34.1254258,1.6670006 Z" id="路径" fill="#1B4DA2"></path>
                        <path d="M50.0861551,2.41234222 C50.4107393,1.54678421 51.0518934,0.60508916 52.0657183,0.552995392 C53.5564015,0.448807854 55.0550992,0.53696654 56.5457824,0.508916049 C57.8801843,6.77619715 59.1705069,13.0474855 60.4848728,19.3147666 C58.9861751,19.3187738 57.4874775,19.3187738 55.9887798,19.322781 C55.7763975,18.381086 55.5760369,17.4353837 55.3836906,16.4856742 C53.3039471,16.4856742 51.2282108,16.4896814 49.1524745,16.4776598 C48.8198758,17.4273693 48.4752555,18.3770787 48.1186135,19.3187738 C46.4195552,19.3187738 44.7204969,19.3187738 43.0214386,19.322781 C45.3696654,13.6846323 47.7419355,8.0544981 50.0861551,2.41234222 Z" id="路径" fill="#1B4DA2"></path>
                        <path d="M50.5670206,12.606692 C51.4726508,10.2785013 52.2139852,7.88218794 53.2278101,5.59807654 C53.528351,7.9623322 54.1174113,10.2785013 54.6022841,12.6106993 C53.2558605,12.6106993 51.9134442,12.6106993 50.5670206,12.606692 Z" id="路径" fill="#FFFFFF"></path>
                    </g>
                </g>
            </g>
        </g>
    </g>
</svg>