<?xml version="1.0" encoding="UTF-8"?>
<svg width="100px" height="56px" viewBox="0 0 100 56" version="1.1" xmlns="http://www.w3.org/2000/svg" xmlns:xlink="http://www.w3.org/1999/xlink">
    <!-- Generator: Sketch 58 (84663) - https://sketch.com -->
    <title>card-icon4</title>
    <desc>Created with Sketch.</desc>
    <g id="Page-1" stroke="none" stroke-width="1" fill="none" fill-rule="evenodd">
        <g id="buy" transform="translate(-1053.000000, -854.000000)">
            <g id="编组-9" transform="translate(523.000000, 854.000000)">
                <g id="card-icon4" transform="translate(530.000000, 0.000000)">
                    <rect id="矩形备份-3" stroke="#E6E7EB" fill="#FFFFFF" x="0.5" y="0.5" width="99" height="55" rx="2"></rect>
                    <g id="编组" transform="translate(10.000000, 14.631579)">
                        <path d="M47.73,6.56814799 C47.7332015,9.52497007 45.7293404,12.1036457 42.9285236,12.7477712 C40.9026298,13.2137263 39.0106528,12.8733255 37.3476742,11.5663052 C35.9359289,10.4567767 35.1979182,8.94643365 35.0320826,7.14106052 C34.8253195,4.89012325 35.6214317,3.05656165 37.3196356,1.65117496 C38.7011155,0.507903085 40.312977,0.058440183 42.0819353,0.256553024 C44.1025655,0.482819833 45.6901674,1.45523577 46.7920717,3.21175349 C47.4400959,4.24475566 47.7136994,5.39592859 47.73,6.56814799" id="Fill-1" fill="#FF6000"></path>
                        <g transform="translate(0.000000, 0.276157)" fill="#000000" id="Fill-3">
                            <path d="M2.43687094,10.2783854 C3.30064618,10.2947396 4.12505356,10.2979138 4.93713433,10.0893812 C5.77372783,9.87453469 6.4583986,9.43535351 6.94717823,8.7381978 C7.99139245,7.24869424 8.08673924,5.68356139 7.21797717,4.09227571 C6.69446532,3.13341922 5.85990869,2.51178929 4.77200702,2.2915259 C4.20463213,2.17666738 3.61320105,2.17363116 3.03191923,2.12884703 C2.83862687,2.1139765 2.64315716,2.12653537 2.43687094,2.12653537 L2.43687094,10.2783854 Z M-3.5118525e-06,12.3564656 L-3.5118525e-06,0.057080788 C0.10781036,0.0481446637 0.208600527,0.0326530813 0.309390694,0.0325150717 C1.38626514,0.030858956 2.46310448,0.0330671103 3.53997893,0.0313294472 C4.84944337,0.0293063475 6.10096225,0.274860003 7.24856541,0.913154599 C8.97414925,1.87297716 9.95371027,3.34119274 10.2432976,5.2585952 C10.4799263,6.82559118 10.1639649,8.28466362 9.26847761,9.60068906 C8.1207691,11.2874774 6.49302546,12.2201121 4.43602809,12.3325899 C3.02384197,12.4097718 1.60498332,12.3701286 0.189074627,12.3812038 C0.132604039,12.3816524 0.0759929763,12.3668163 -3.5118525e-06,12.3564656 L-3.5118525e-06,12.3564656 Z"></path>
                        </g>
                        <path d="M72.0676102,5.98154146 C72.6981633,6.01376671 73.3021317,6.0179415 73.8892432,5.83776991 C74.4568639,5.66363625 74.8747041,5.32037176 75.0603055,4.74859782 C75.1796734,4.38080212 75.1855382,4.00393229 75.1061001,3.62661393 C74.9877507,3.06446615 74.6439403,2.68542267 74.1096119,2.47209427 C73.4535628,2.21015196 72.7689271,2.24913969 72.0676102,2.27094521 L72.0676102,5.98154146 Z M72.0577419,7.74789236 L72.0577419,12.5809555 C71.7996558,12.6742846 70.0823248,12.6969526 69.6204109,12.6177006 L69.6204109,0.345262172 C69.6736506,0.33335884 69.7273819,0.310656254 69.7810079,0.31089586 C71.1728253,0.317901761 72.565626,0.30058155 73.9562142,0.346021225 C74.819849,0.374209695 75.636741,0.625145726 76.3495066,1.13550538 C77.1828341,1.73222457 77.5638701,2.56942557 77.6587252,3.55081213 C77.717935,4.16340243 77.6683828,4.76850571 77.4564425,5.35259701 C77.0724214,6.41085495 76.2898402,7.04290461 75.2163371,7.35956773 C75.1052572,7.39234502 74.9925268,7.41987795 74.8264513,7.46435155 C76.1362318,9.18905805 77.4256084,10.8868527 78.7504197,12.6313291 C78.6013766,12.6434049 78.5036067,12.6579649 78.4057665,12.6582064 C77.6336857,12.6601041 76.8613591,12.6499604 76.0895593,12.6647964 C75.8499807,12.6693852 75.7092959,12.5914443 75.5775312,12.3966092 C74.5677682,10.9037934 73.5452221,9.41936164 72.5312098,7.92930604 C72.417777,7.76262489 72.3076804,7.63293033 72.0577419,7.74789236 L72.0577419,7.74789236 Z" id="Fill-5" fill="#000000"></path>
                        <path d="M79.0338896,1.49314011 C79.1144808,1.49615783 79.1916081,1.49657696 79.2665995,1.47956038 C79.3391662,1.46313058 79.3925665,1.4306901 79.4162935,1.37670647 C79.4315343,1.34200271 79.4322847,1.30637686 79.422182,1.27075102 C79.406999,1.21768946 79.3630664,1.18189597 79.2948295,1.16173593 C79.2109477,1.1370074 79.1234867,1.14069573 79.0338896,1.14274945 L79.0338896,1.49314011 Z M79.0326196,1.65991098 L79.0326196,2.11629901 C78.999598,2.1251426 78.7801661,2.12723824 78.7211659,2.11977777 L78.7211659,0.960889991 C78.7279781,0.959758346 78.7347902,0.957662708 78.7416601,0.957662708 C78.9195841,0.958333312 79.0975082,0.956698715 79.2752013,0.960973816 C79.3855811,0.963656233 79.4898993,0.987336941 79.5810551,1.03553661 C79.6875093,1.09186736 79.7361757,1.17095674 79.7482991,1.26358393 C79.7558617,1.32146545 79.7495114,1.37859254 79.7224937,1.43374973 C79.6733655,1.53366975 79.5734347,1.59335352 79.4362104,1.62323732 C79.4220665,1.62633886 79.407634,1.62893745 79.3863894,1.63312873 C79.5537488,1.79600171 79.7185104,1.95631801 79.8878326,2.12103515 C79.8687817,2.12220871 79.8562543,2.12359183 79.8437268,2.12359183 C79.7450662,2.12375948 79.6464055,2.12279549 79.5478026,2.12422052 C79.5172057,2.12463965 79.4992516,2.11730492 79.4823944,2.09890521 C79.35331,1.95791069 79.2227246,1.81775443 79.0930629,1.6770533 C79.0785727,1.66133601 79.0645443,1.64905558 79.0326196,1.65991098 L79.0326196,1.65991098 Z" id="Fill-7" fill="#000000"></path>
                        <path d="M61.0455066,12.6498223 L61.0455066,0.327458928 L67.9538824,0.327458928 L67.9538824,2.39884565 L63.4977278,2.39884565 L63.4977278,5.14323639 L67.8050149,5.14323639 C67.8063845,5.84646452 67.8149535,6.51719138 67.7956383,7.22856208 L63.4959017,7.22856208 L63.4959017,10.5571476 L67.9690184,10.5571476 C67.9819772,11.2695534 67.9852783,11.9494234 67.9650852,12.6498223 L61.0455066,12.6498223 Z" id="Fill-9" fill="#000000"></path>
                        <path d="M23.0724671,1.4843144 C22.6390694,2.04228739 22.2292713,2.56993275 21.8085514,3.1116551 C21.6424056,2.96160412 21.5020018,2.824043 21.3504302,2.69966181 C20.5860404,2.0725805 19.7371203,1.95568634 18.826532,2.33403977 C18.4087972,2.5076214 18.111273,2.81213967 18.0124144,3.26408675 C17.9306234,3.63798937 18.0059877,3.98549765 18.3074451,4.23767577 C18.5183319,4.4141211 18.7576295,4.57214214 19.0092186,4.68424047 C19.5087094,4.90671201 20.0255487,5.09174844 20.5351536,5.29237996 C21.1226514,5.52368412 21.6918174,5.79059477 22.2092537,6.15242155 C22.9452327,6.6670595 23.3651449,7.35990241 23.4690255,8.2500646 C23.5517296,8.95898563 23.5199824,9.65265659 23.2739421,10.3241425 C22.7978402,11.6237103 21.8490079,12.4383812 20.5075154,12.7889947 C19.3445303,13.092961 18.1866023,13.0244047 17.0724671,12.5535158 C16.1179456,12.1500791 15.4209131,11.455373 14.8290606,10.6023009 C15.3567867,10.1009809 15.8669886,9.61632555 16.3938016,9.11586809 C16.4655487,9.22410215 16.5218086,9.30956462 16.5787006,9.39461306 C17.2018437,10.3261436 18.0818788,10.7816445 19.2148376,10.7501438 C20.3725549,10.7179875 21.2029324,9.69071275 20.9329763,8.63745767 C20.8202107,8.19737942 20.5532397,7.86670832 20.140878,7.68060231 C19.6110097,7.4414316 19.0666374,7.23196747 18.5226866,7.02429746 C17.8350658,6.76176862 17.1510623,6.49692811 16.5594557,6.04808626 C15.9441089,5.58123414 15.6109745,4.97061048 15.4984899,4.21359309 C15.1655312,1.97290304 16.861475,0.25792622 19.0353117,0.125264452 C20.4206321,0.0406990435 21.6729587,0.401973784 22.7758911,1.23910577 C22.8676558,1.30876614 22.953626,1.38570651 23.0724671,1.4843144" id="Fill-11" fill="#000000"></path>
                        <path d="M57.2479368,0.321879888 L59.8277436,0.321879888 C59.8095874,0.593206845 54.9387533,12.0679495 54.4684109,12.9539714 L53.1524495,12.9539714 C51.3898507,8.76572383 49.6221949,4.56550387 47.8392625,0.328849375 L50.5125198,0.328849375 C51.6120105,3.04760482 52.7155751,5.77650398 53.8191747,8.50540314 C55.0188235,5.79061547 56.1168393,3.0516071 57.2479368,0.321879888" id="Fill-13" fill="#000000"></path>
                        <g transform="translate(24.266901, 0.000138)" fill="#000000" id="Fill-15">
                            <path d="M9.71491133,9.47527625 L9.71491133,12.1759524 C7.63171554,13.3717025 4.0327691,13.3177752 1.73331343,10.8794899 C-0.360558385,8.65922524 -0.616712906,5.03440198 1.41865145,2.51289682 C3.46514838,-0.0224093157 7.15115364,-0.650008164 9.71118876,0.80268133 L9.71118876,3.56007948 C9.61808955,3.49411087 9.5450079,3.45043082 9.48151361,3.39602052 C9.04720281,3.02405003 8.59041615,2.68709949 8.04650044,2.4812236 C6.74771203,1.98959876 4.86851975,2.18646951 3.63129412,3.58033239 C2.71006497,4.61819941 2.40987182,5.83354682 2.59329587,7.17686367 C2.72660579,8.1534199 3.12990694,9.00349029 3.87642142,9.68046209 C4.51761545,10.2618967 5.28179456,10.5695202 6.13921335,10.6888295 C7.42247937,10.8673795 8.51754522,10.495754 9.45398068,9.63264174 C9.51336611,9.57792092 9.57896752,9.52968655 9.64270764,9.47969256 C9.64938016,9.47448269 9.66318174,9.47800194 9.71491133,9.47527625"></path>
                        </g>
                        <path d="M13.8787533,12.6350484 L11.4740123,12.6350484 L11.4740123,0.372443171 C11.7176646,0.290948477 13.4876032,0.275111871 13.8787533,0.355847512 L13.8787533,12.6350484 Z" id="Fill-17" fill="#000000"></path>
                        <path d="M79.0556488,0.665203025 C78.6232344,0.657508988 78.2745426,0.991354312 78.2695558,1.41783861 C78.2644636,1.85622624 78.5881861,2.20083631 79.0153327,2.21160107 C79.447712,2.22246933 79.7910307,1.89134969 79.7957366,1.45886197 C79.800583,1.01371187 79.482655,0.672793555 79.0556488,0.665203025 M79.9948019,1.44844225 C79.9921194,1.95928494 79.5364565,2.40295143 79.0262195,2.39156564 C78.5016892,2.37986932 78.0783003,1.94386236 78.0870799,1.42446307 C78.0960702,0.8967142 78.5239543,0.479511052 79.0517507,0.483961863 C79.5713644,0.488343669 79.9975628,0.924247124 79.9948019,1.44844225" id="Fill-19" fill="#000000"></path>
                        <path d="M89,10.3684211 L89,39.3684211 C89,39.9207058 88.5522847,40.3684211 88,40.3684211 L22,40.3684211 L22,40.3684211 C41.715233,35.4113516 55.715233,31.0780182 64,27.3684211 C72.284767,23.6588239 80.6181004,17.9921572 89,10.3684211 Z" id="矩形备份-3" fill="#FF6000"></path>
                        <path d="M20.632,17.6564211 L20.632,23.3684211 L21.504,23.3684211 L21.504,19.0724211 L21.536,19.0724211 L24.488,23.3684211 L25.336,23.3684211 L25.336,17.6564211 L24.464,17.6564211 L24.464,21.9044211 L24.432,21.9044211 L21.512,17.6564211 L20.632,17.6564211 Z M26.464,17.6564211 L26.464,23.3684211 L30.704,23.3684211 L30.704,22.6244211 L27.336,22.6244211 L27.336,20.8084211 L30.376,20.8084211 L30.376,20.0644211 L27.336,20.0644211 L27.336,18.4004211 L30.568,18.4004211 L30.568,17.6564211 L26.464,17.6564211 Z M31.152,17.6564211 L31.152,18.4004211 L33.064,18.4004211 L33.064,23.3684211 L33.928,23.3684211 L33.928,18.4004211 L35.832,18.4004211 L35.832,17.6564211 L31.152,17.6564211 Z M36,17.6564211 L37.64,23.3684211 L38.576,23.3684211 L39.736,18.9604211 L39.768,18.9604211 L40.928,23.3684211 L41.856,23.3684211 L43.504,17.6564211 L42.52,17.6564211 L41.408,22.1044211 L41.376,22.1044211 L40.208,17.6564211 L39.296,17.6564211 L38.128,22.1044211 L38.096,22.1044211 L36.984,17.6564211 L36,17.6564211 Z M46.632,17.5444211 C45.76,17.5444211 45.072,17.8244211 44.576,18.4004211 C44.096,18.9444211 43.864,19.6484211 43.864,20.5204211 C43.864,21.3844211 44.096,22.0884211 44.576,22.6324211 C45.072,23.1924211 45.76,23.4804211 46.632,23.4804211 C47.496,23.4804211 48.184,23.2004211 48.688,22.6404211 C49.168,22.0964211 49.408,21.3924211 49.408,20.5204211 C49.408,19.6404211 49.168,18.9284211 48.688,18.3924211 C48.184,17.8244211 47.496,17.5444211 46.632,17.5444211 Z M46.632,18.3124211 C47.24,18.3124211 47.712,18.5044211 48.04,18.9044211 C48.36,19.2964211 48.528,19.8324211 48.528,20.5204211 C48.528,21.2004211 48.36,21.7364211 48.04,22.1204211 C47.712,22.5124211 47.24,22.7124211 46.632,22.7124211 C46.024,22.7124211 45.552,22.5044211 45.216,22.1044211 C44.896,21.7124211 44.736,21.1844211 44.736,20.5204211 C44.736,19.8484211 44.896,19.3204211 45.216,18.9284211 C45.552,18.5124211 46.024,18.3124211 46.632,18.3124211 Z M50.288,17.6564211 L50.288,23.3684211 L51.16,23.3684211 L51.16,21.0084211 L52.704,21.0084211 C53.032,21.0084211 53.28,21.0724211 53.456,21.2164211 C53.624,21.3604211 53.728,21.5844211 53.76,21.9044211 L53.832,22.6164211 C53.864,22.9364211 53.944,23.1924211 54.08,23.3684211 L55.024,23.3684211 C54.832,23.1604211 54.72,22.8804211 54.688,22.5284211 L54.592,21.6164211 C54.528,21.0564211 54.248,20.7204211 53.736,20.6084211 L53.736,20.5924211 C54.048,20.5124211 54.296,20.3444211 54.48,20.0884211 C54.64,19.8564211 54.72,19.5924211 54.72,19.2884211 C54.72,18.7444211 54.544,18.3364211 54.192,18.0484211 C53.856,17.7844211 53.392,17.6564211 52.816,17.6564211 L50.288,17.6564211 Z M51.16,18.4004211 L52.696,18.4004211 C53.096,18.4004211 53.384,18.4724211 53.576,18.6244211 C53.752,18.7684211 53.848,19.0004211 53.848,19.3204211 C53.848,19.6244211 53.752,19.8564211 53.568,20.0164211 C53.376,20.1764211 53.088,20.2644211 52.704,20.2644211 L51.16,20.2644211 L51.16,18.4004211 Z M59.456,17.6564211 L60.56,17.6564211 L58.032,20.1124211 L60.928,23.3684211 L59.76,23.3684211 L57.44,20.6804211 L56.696,21.3924211 L56.696,23.3684211 L55.824,23.3684211 L55.824,17.6564211 L56.696,17.6564211 L56.696,20.4164211 L59.456,17.6564211 Z" id="NETWORK" fill="#000000" fill-rule="nonzero"></path>
                    </g>
                </g>
            </g>
        </g>
    </g>
</svg>