<?xml version="1.0" encoding="UTF-8"?>
<svg width="100px" height="56px" viewBox="0 0 100 56" version="1.1" xmlns="http://www.w3.org/2000/svg" xmlns:xlink="http://www.w3.org/1999/xlink">
    <!-- Generator: Sketch 58 (84663) - https://sketch.com -->
    <title>card-icon5</title>
    <desc>Created with Sketch.</desc>
    <g id="Page-1" stroke="none" stroke-width="1" fill="none" fill-rule="evenodd">
        <g id="buy" transform="translate(-1163.000000, -854.000000)">
            <g id="编组-9" transform="translate(523.000000, 854.000000)">
                <g id="card-icon5" transform="translate(640.000000, 0.000000)">
                    <rect id="矩形备份-5" stroke="#E6E7EB" fill="#016FD0" x="0.5" y="0.5" width="99" height="55" rx="2"></rect>
                    <g id="编组-22" transform="translate(16.000000, 16.000000)" fill-rule="nonzero">
                        <path d="M13.0964353,24.4710261 L13.0964353,13.879086 L24.3113328,13.879086 L25.5145699,15.4476541 L26.7575947,13.879086 L67.4649043,13.879086 L67.4649043,23.7405507 C67.4649043,23.7405507 66.4003362,24.4604348 65.169114,24.4710261 L42.6286365,24.4710261 L41.2720338,22.8013604 L41.2720338,24.4710261 L36.8265502,24.4710261 L36.8265502,21.620856 C36.8265502,21.620856 36.2192904,22.0187063 34.906436,22.0187063 L33.3933018,22.0187063 L33.3933018,24.4710261 L26.6624643,24.4710261 L25.4609465,22.8688174 L24.2409804,24.4710261 L13.0964353,24.4710261 Z" id="path3082" fill="#FFFFFF"></path>
                        <path d="M-1.42108547e-14,5.89600193 L2.52900362,-9.59232693e-14 L6.9026513,-9.59232693e-14 L8.33789005,3.30270145 L8.33789005,-9.59232693e-14 L13.7747373,-9.59232693e-14 L14.6291357,2.38709469 L15.457446,-9.59232693e-14 L39.8632537,-9.59232693e-14 L39.8632537,1.20007053 C39.8632537,1.20007053 41.1462455,-9.59232693e-14 43.2547612,-9.59232693e-14 L51.1735528,0.0276753623 L52.5840149,3.28715266 L52.5840149,-9.59232693e-14 L57.1338519,-9.59232693e-14 L58.3861012,1.87230725 L58.3861012,-9.59232693e-14 L62.9776798,-9.59232693e-14 L62.9776798,10.5919333 L58.3861012,10.5919333 L57.1860293,8.71355942 L57.1860293,10.5919333 L50.50131,10.5919333 L49.8290671,8.92226763 L48.0319893,8.92226763 L47.3706881,10.5919333 L42.8373447,10.5919333 C41.0230333,10.5919333 39.8632537,9.41636618 39.8632537,9.41636618 L39.8632537,10.5919333 L33.0280628,10.5919333 L31.6714594,8.92226763 L31.6714594,10.5919333 L6.25472184,10.5919333 L5.58294232,8.92226763 L3.79159498,8.92226763 L3.12456329,10.5919333 L-1.42108547e-14,10.5919333 L-1.42108547e-14,5.89600193 Z" id="path3080" fill="#FFFFFF"></path>
                        <polygon id="path3048" fill="#016FD0" points="9.65275111 9.23533333 9.65275111 1.30442126 12.8086101 1.31614203 14.644165 6.42948986 16.435766 1.30442126 19.5663878 1.30442126 19.5663878 9.23533333 17.5836605 9.23533333 17.5836605 3.39150338 15.4819277 9.23533333 13.7430716 9.23533333 11.6354785 3.39150338 11.6354785 9.23533333"></polygon>
                        <polygon id="path3050" fill="#016FD0" points="20.9229905 9.23533333 20.9229905 1.30442126 27.3929431 1.30442126 27.3929431 3.07844444 22.9265887 3.07844444 22.9265887 4.43504444 27.288589 4.43504444 27.288589 6.10471014 22.9265887 6.10471014 22.9265887 7.51348889 27.3929431 7.51348889 27.3929431 9.23533333"></polygon>
                        <path d="M28.5408376,1.30576039 L28.5408376,9.2366657 L30.5235649,9.2366657 L30.5235649,6.41910821 L31.3583971,6.41910821 L33.7357134,9.2366657 L36.1586846,9.2366657 L33.5498327,6.31475749 C34.6205215,6.22440676 35.7249626,5.30545217 35.7249626,3.87874396 C35.7249626,2.20980193 34.4150313,1.30576039 32.953058,1.30576039 L28.5408376,1.30576039 L28.5408376,1.30576039 Z M30.5235649,3.07977681 L32.7900046,3.07977681 C33.3336923,3.07977681 33.7291916,3.5050657 33.7291916,3.91460966 C33.7291916,4.44150338 33.2167557,4.74944251 32.8193546,4.74944251 L30.5235649,4.74944251 L30.5235649,3.07977681 L30.5235649,3.07977681 Z" id="path3052" fill="#016FD0"></path>
                        <polygon id="path3054" fill="#016FD0" points="38.5588284 9.23533333 36.5343594 9.23533333 36.5343594 1.30442126 38.5588284 1.30442126"></polygon>
                        <polygon id="path3062" fill="#016FD0" points="14.4530386 23.1144261 14.4530386 15.183514 20.9229905 15.183514 20.9229905 16.9575372 16.4566368 16.9575372 16.4566368 18.3141372 20.8186364 18.3141372 20.8186364 19.9838029 16.4566368 19.9838029 16.4566368 21.3925816 20.9229905 21.3925816 20.9229905 23.1144261"></polygon>
                        <polygon id="path3066" fill="#016FD0" points="21.1740924 23.1144261 24.3242811 19.1978821 21.0990882 15.183514 23.5970636 15.183514 25.5178304 17.6651797 27.4451198 15.183514 29.8452636 15.183514 26.6624643 19.14897 29.8184519 23.1144261 27.3208715 23.1144261 25.4558706 20.6718792 23.6361966 23.1144261"></polygon>
                        <path d="M30.0539718,15.1848531 L30.0539718,23.1157585 L32.0888758,23.1157585 L32.0888758,20.6112599 L34.1759573,20.6112599 C35.9419234,20.6112599 37.2804904,19.6743826 37.2804904,17.852401 C37.2804904,16.3430792 36.2306453,15.1848531 34.4335816,15.1848531 L30.0539718,15.1848531 L30.0539718,15.1848531 Z M32.0888758,16.9784357 L34.2868332,16.9784357 C34.8573474,16.9784357 35.2651526,17.3281043 35.2651526,17.8915333 C35.2651526,18.4208415 34.8594062,18.8046309 34.2803114,18.8046309 L32.0888758,18.8046309 L32.0888758,16.9784357 Z" id="path3068" fill="#016FD0"></path>
                        <path d="M38.141412,15.183514 L38.141412,23.1144261 L40.1241393,23.1144261 L40.1241393,20.2968618 L40.9589715,20.2968618 L43.3362878,23.1144261 L45.759259,23.1144261 L43.1504071,20.1925111 C44.2210953,20.1021469 45.325537,19.1832058 45.325537,17.7564908 C45.325537,16.0875556 44.0156057,15.183514 42.5536324,15.183514 L38.141412,15.183514 L38.141412,15.183514 Z M40.1241393,16.9575372 L42.390579,16.9575372 C42.9342667,16.9575372 43.3297653,17.3828193 43.3297653,17.7923633 C43.3297653,18.3192638 42.8173295,18.6271961 42.4199283,18.6271961 L40.1241393,18.6271961 L40.1241393,16.9575372 L40.1241393,16.9575372 Z" id="path3072" fill="#016FD0"></path>
                        <g id="American_Express_logo_(2018)" fill="#016FD0">
                            <path d="M3.42411797,1.50325894 L0.0130442802,9.43416425 L2.23382925,9.43416425 L2.86321473,7.84603671 L6.52212928,7.84603671 L7.14825391,9.43416425 L9.41795488,9.43416425 L6.01014184,1.50325894 L3.42411797,1.50325894 Z M4.68614966,3.34902029 L5.8014343,6.12419227 L3.56760444,6.12419227 L4.68614966,3.34902029 L4.68614966,3.34902029 Z" id="path3046"></path>
                            <path d="M43.3591153,9.43283188 L42.9221327,9.43283188 C40.8078134,9.43283188 39.5241034,7.76708889 39.5241034,5.49998841 C39.5241034,3.17688116 40.7934408,1.50191981 43.4634694,1.50191981 L45.6549049,1.50191981 L45.6549049,3.38029372 L43.3833495,3.38029372 C42.2994654,3.38029372 41.5329187,4.22615749 41.5329187,5.51955459 C41.5329187,7.05546957 42.4094317,7.70055169 43.6721776,7.70055169 L44.1939474,7.70055169 L43.3591153,9.43283188 Z" id="path3056"></path>
                            <path d="M47.6735034,1.50325894 L44.2624304,9.43416425 L46.4832153,9.43416425 L47.1126005,7.84603671 L50.7715154,7.84603671 L51.3976393,9.43416425 L53.6673403,9.43416425 L50.2595279,1.50325894 L47.6735034,1.50325894 Z M48.9355357,3.34902029 L50.0508197,6.12419227 L47.8169905,6.12419227 L48.9355357,3.34902029 Z" id="path3058"></path>
                            <polygon id="path3060" points="53.8988759 9.43283188 53.8988759 1.50191981 56.4196787 1.50191981 59.6383498 6.48483092 59.6383498 1.50191981 61.6210771 1.50191981 61.6210771 9.43283188 59.181801 9.43283188 55.8816033 4.31948406 55.8816033 9.43283188"></polygon>
                            <polygon id="path3064" points="46.155804 23.3119246 46.155804 15.3810126 52.6257565 15.3810126 52.6257565 17.1550357 48.1594021 17.1550357 48.1594021 18.5116357 52.5005316 18.5116357 52.5005316 20.1813014 48.1594021 20.1813014 48.1594021 21.5900802 52.6257565 21.5900802 52.6257565 23.3119246"></polygon>
                            <path d="M53.544072,23.3119246 L53.544072,21.5900802 L57.5121359,21.5900802 C58.0992669,21.5900802 58.3534906,21.272801 58.3534906,20.9248232 C58.3534906,20.5914203 58.1000683,20.2543517 57.5121359,20.2543517 L55.7190132,20.2543517 C54.1603662,20.2543517 53.2923182,19.3047256 53.2923182,17.8789913 C53.2923182,16.6073382 54.0872395,15.3810126 56.4033738,15.3810126 L60.2644744,15.3810126 L59.4296415,17.1654647 L56.0903115,17.1654647 C55.4519785,17.1654647 55.2554786,17.5004232 55.2554786,17.8202928 C55.2554786,18.1490696 55.4983049,18.5116357 55.9859574,18.5116357 L57.8643306,18.5116357 C59.6018382,18.5116357 60.3557842,19.4972087 60.3557842,20.7878599 C60.3557842,22.1754357 59.5156408,23.3119246 57.7697434,23.3119246 L53.544072,23.3119246 Z" id="path3074"></path>
                            <path d="M60.8211387,23.3119246 L60.8211387,21.5900802 L64.7892,21.5900802 C65.3763343,21.5900802 65.6305594,21.272801 65.6305594,20.9248232 C65.6305594,20.5914203 65.3771324,20.2543517 64.7892,20.2543517 L62.99608,20.2543517 C61.4374329,20.2543517 60.5693843,19.3047256 60.5693843,17.8789913 C60.5693843,16.6073382 61.3643056,15.3810126 63.6804399,15.3810126 L67.5415391,15.3810126 L66.7067063,17.1654647 L63.3673776,17.1654647 C62.7290452,17.1654647 62.5325454,17.5004232 62.5325454,17.8202928 C62.5325454,18.1490696 62.775371,18.5116357 63.2630235,18.5116357 L65.1413981,18.5116357 C66.8789063,18.5116357 67.6328502,19.4972087 67.6328502,20.7878599 C67.6328502,22.1754357 66.7927082,23.3119246 65.0468068,23.3119246 L60.8211387,23.3119246 Z" id="path3076"></path>
                        </g>
                    </g>
                </g>
            </g>
        </g>
    </g>
</svg>