<?xml version="1.0" encoding="UTF-8"?>
<svg width="100px" height="56px" viewBox="0 0 100 56" version="1.1" xmlns="http://www.w3.org/2000/svg" xmlns:xlink="http://www.w3.org/1999/xlink">
    <!-- Generator: Sketch 58 (84663) - https://sketch.com -->
    <title>card-icon6</title>
    <desc>Created with Sketch.</desc>
    <g id="Page-1" stroke="none" stroke-width="1" fill="none" fill-rule="evenodd">
        <g id="buy" transform="translate(-1273.000000, -854.000000)">
            <g id="编组-9" transform="translate(523.000000, 854.000000)">
                <g id="card-icon6" transform="translate(750.000000, 0.000000)">
                    <rect id="矩形备份-4" stroke="#E6E7EB" fill="#FFFFFF" x="0.5" y="0.5" width="99" height="55" rx="2"></rect>
                    <g id="Maestro_Logo" transform="translate(24.000000, 12.000000)">
                        <g id="g2903" transform="translate(15.529442, 16.826076) scale(-1, 1) rotate(-180.000000) translate(-15.529442, -16.826076) translate(0.029442, 1.326076)" fill="#009CDC" fill-rule="nonzero">
                            <path d="M25.9211783,4.32019638 C28.9777172,7.08944226 30.8980445,11.0921042 30.8980445,15.5440666 C30.8980445,19.9949489 28.9777172,23.9965308 25.9211783,26.7668567 C23.231856,29.2034475 19.666614,30.6863549 15.7535961,30.6863549 C7.39185601,30.6863549 0.610227739,23.9068867 0.610227739,15.5440666 C0.610227739,7.18016639 7.39185601,0.399618165 15.7535961,0.399618165 C19.666614,0.399618165 23.231856,1.88360562 25.9211783,4.32019638" id="path2905"></path>
                        </g>
                        <g id="g2907" transform="translate(28.450621, 16.505880) scale(-1, 1) rotate(-180.000000) translate(-28.450621, -16.505880) translate(25.950621, 5.005880)" fill="#009CDC" fill-rule="nonzero">
                            <path d="M0,0 C3.05653894,2.76924588 4.97686623,6.77190783 4.97686623,11.2238702 C4.97686623,15.6747525 3.05653894,19.6763344 0,22.4466603" id="path2909"></path>
                        </g>
                        <g id="g2911" transform="translate(28.450621, 16.505880) scale(-1, 1) rotate(-180.000000) translate(-28.450621, -16.505880) translate(25.950621, 5.005880)" stroke="#009CDC" stroke-width="2.01609164">
                            <path d="M0,0 C3.05653894,2.76924588 4.97686623,6.77190783 4.97686623,11.2238702 C4.97686623,15.6747525 3.05653894,19.6763344 0,22.4466603" id="path2913"></path>
                        </g>
                        <g id="g2915" transform="translate(36.494287, 16.461145) scale(-1, 1) rotate(-180.000000) translate(-36.494287, -16.461145) translate(20.994287, 0.961145)" fill="#ED2233" fill-rule="nonzero">
                            <path d="M15.1206873,30.3214238 C11.2087495,30.3214238 7.6424274,28.8385164 4.9563453,26.4019256 C4.40768036,25.9061831 3.89681714,25.3693987 3.42591573,24.7980527 L6.48353472,24.7980527 C6.90151372,24.2904296 7.28817129,23.7558053 7.6381072,23.1963399 L2.27134325,23.1963399 C1.95056867,22.6811565 1.65787536,22.1454521 1.39866358,21.592467 L8.50970682,21.592467 C8.75379792,21.0729634 8.96872769,20.5383391 9.15233603,19.987514 L0.757114416,19.987514 C0.583226511,19.4658503 0.436339834,18.931226 0.317534434,18.3847212 L9.59191601,18.3847212 C9.81548618,17.3511142 9.93321153,16.2786254 9.93321153,15.1791354 C9.93321153,13.497499 9.65887906,11.8795855 9.15233603,10.3685968 L0.757114416,10.3685968 C0.941802811,9.81885179 1.15565253,9.28314744 1.39866358,8.76472387 L8.50970682,8.76472387 C8.25157509,8.21065868 7.95996183,7.67603438 7.6381072,7.15977091 L2.27134325,7.15977091 C2.62127915,6.60030548 3.00793673,6.06568118 3.42591573,5.55805811 L6.48353472,5.55805811 C6.01371336,4.98671213 5.50177009,4.44992773 4.9563453,3.95526525 C7.6424274,1.51867449 11.2087495,0.0346870332 15.1206873,0.0346870332 C23.4845875,0.0346870332 30.2640557,6.81523525 30.2640557,15.1791354 C30.2640557,23.5419556 23.4845875,30.3214238 15.1206873,30.3214238" id="path2917"></path>
                        </g>
                        <g id="g2919" transform="translate(49.585207, 25.275654) scale(-1, 1) rotate(-180.000000) translate(-49.585207, -25.275654) translate(48.585207, 24.275654)" fill="#ED2233" fill-rule="nonzero">
                            <path d="M1.1506123,1.16645302 L1.21487522,1.16645302 C1.23755625,1.16645302 1.26527752,1.16519297 1.28669849,1.17653348 C1.30559935,1.18913405 1.31567981,1.21181508 1.31567981,1.23323606 C1.31567981,1.25339698 1.30433929,1.27481795 1.28669849,1.28489841 C1.26653757,1.29749898 1.23377608,1.29371881 1.21109505,1.29371881 L1.1506123,1.29371881 L1.1506123,1.16645302 Z M1.1506123,0.882940135 L1.03342698,0.882940135 L1.03342698,1.38444293 L1.24385654,1.38444293 C1.28795855,1.38444293 1.33458067,1.38318287 1.37238238,1.35798173 C1.41396427,1.33152053 1.4366453,1.28237829 1.4366453,1.23323606 C1.4366453,1.17653348 1.40388382,1.12361108 1.34970135,1.10345016 L1.44294559,0.882940135 L1.31315969,0.882940135 L1.2362962,1.08076913 L1.1506123,1.08076913 L1.1506123,0.882940135 Z M1.2274758,0.698971773 C1.46688668,0.698971773 1.66219556,0.893020594 1.66219556,1.13243148 C1.66219556,1.37184236 1.46688668,1.56589118 1.2274758,1.56589118 C0.989324971,1.56589118 0.792756036,1.37184236 0.792756036,1.13243148 C0.792756036,0.893020594 0.989324971,0.698971773 1.2274758,0.698971773 Z M0.65666985,1.13243148 C0.65666985,1.44870585 0.91120142,1.70323742 1.2274758,1.70323742 C1.54375017,1.70323742 1.79702169,1.44870585 1.79702169,1.13243148 C1.79702169,0.818677214 1.54375017,0.56162553 1.2274758,0.56162553 C0.91120142,0.56162553 0.65666985,0.818677214 0.65666985,1.13243148" id="path2921"></path>
                        </g>
                        <g id="g2923" transform="translate(10.279510, 16.996374) scale(-1, 1) rotate(-180.000000) translate(-10.279510, -16.996374) translate(4.779510, 12.996374)" fill="#003873" fill-rule="nonzero">
                            <polyline id="path2925" points="8.64039276 0 6.73734626 0 7.85627712 5.90246831 5.27711988 0 3.68512751 0 3.37191328 5.87006683 2.12445657 0 0.393137871 0 1.8544443 7.67806902 4.84726034 7.67806902 4.88074186 2.925853 6.95443612 7.67806902 10.1254603 7.67806902 8.64039276 0"></polyline>
                        </g>
                        <g id="g2927" transform="translate(33.738551, 17.498660) scale(-1, 1) rotate(-180.000000) translate(-33.738551, -17.498660) translate(31.238551, 12.998660)" fill="#003873" fill-rule="nonzero">
                            <path d="M3.24014729,1.0800491 C2.72388382,0.938562664 2.32102551,0.876999865 1.88576572,0.876999865 C0.921281878,0.876999865 0.395297969,1.36086186 0.395297969,2.24866222 C0.395297969,2.42363017 0.413658803,2.61155871 0.451460522,2.80812765 L0.564865677,3.41943544 L0.653429703,3.91409792 L1.52718942,8.68035458 L3.40215465,8.68035458 L3.12998228,7.24712943 L4.09122597,7.24712943 L3.83309424,5.7285804 L2.86753035,5.7285804 L2.37070776,3.12350198 C2.34910678,3.01009683 2.33830629,2.92477295 2.33830629,2.8664503 C2.33830629,2.54351562 2.53271513,2.40310924 2.9809355,2.40310924 C3.19586527,2.40310924 3.36219283,2.42255012 3.48963863,2.46251194 L3.24014729,1.0800491" id="path2929"></path>
                        </g>
                        <g id="g2931" transform="translate(28.916059, 17.625025) scale(-1, 1) rotate(-180.000000) translate(-28.916059, -17.625025) translate(25.916059, 14.125025)" fill="#003873" fill-rule="nonzero">
                            <path d="M1.0800491,4.40024548 C1.0800491,3.61180964 1.52394927,3.06854494 2.53163508,2.66136643 C3.30387018,2.34707215 3.42375563,2.25526797 3.42375563,1.97013501 C3.42375563,1.58131734 3.08354017,1.40634938 2.3296659,1.40634938 C1.75939998,1.40634938 1.23125597,1.48519297 0.62102823,1.65476068 L0.357496251,0.213975183 L0.443900178,0.201014594 L0.792756036,0.136211648 C0.904001093,0.115690715 1.07032865,0.0984099299 1.29065867,0.0822091934 C1.74427929,0.0465675733 2.0942152,0.0292867878 2.34154644,0.0292867878 C4.3536779,0.0292867878 5.28360017,0.690276834 5.28360017,2.11270149 C5.28360017,2.96918042 4.89586255,3.4724833 3.93893905,3.85050049 C3.13970272,4.16803492 3.04789855,4.23715806 3.04789855,4.52877132 C3.04789855,4.86466659 3.36435293,5.03747444 3.98106097,5.03747444 C4.35475795,5.03747444 4.86562117,5.00291287 5.35056322,4.94459022 L5.62273559,6.38969591 C5.12915315,6.457739 4.37959908,6.51282151 3.9443393,6.51282151 C1.81232238,6.51282151 1.0735688,5.55265786 1.0800491,4.40024548" id="path2933"></path>
                        </g>
                        <g id="g2935" transform="translate(17.426434, 17.954315) scale(-1, 1) rotate(-180.000000) translate(-17.426434, -17.954315) translate(13.926434, 14.454315)" fill="#003873" fill-rule="nonzero">
                            <path d="M4.32019638,3.24014729 C4.1225474,3.26174827 4.03614347,3.26714851 3.89897723,3.26714851 C2.83080868,3.26714851 2.28970408,2.94637393 2.28970408,2.31670531 C2.28970408,1.92788763 2.55323606,1.67947634 2.96581482,1.67947634 C3.73480977,1.67947634 4.28779491,2.31778536 4.32019638,3.24014729 Z M5.59249422,0.457940816 L4.02534298,0.457940816 L4.0631447,1.10489022 C3.58468295,0.594027002 2.94961408,0.352096005 2.08449475,0.352096005 C1.06492841,0.352096005 0.362896496,1.04656757 0.362896496,2.05641348 C0.362896496,3.5771226 1.58119188,4.46384291 3.67324697,4.46384291 C3.88925679,4.46384291 4.16034911,4.44656213 4.44224193,4.4152407 C4.50056458,4.62045003 4.51568527,4.7100941 4.51568527,4.82133916 C4.51568527,5.23499796 4.18735034,5.38836494 3.30711033,5.38836494 C2.76924588,5.38836494 2.16117824,5.32248194 1.74103914,5.21447703 L1.47966726,5.14967409 L1.3111796,5.10863222 L1.57147143,6.51269604 C2.5121942,6.75246694 3.13214238,6.84427112 3.82877404,6.84427112 C5.44776764,6.84427112 6.30532662,6.2102823 6.30532662,5.01250785 C6.30532662,4.70469386 6.27508524,4.46924316 6.1508796,3.77477159 C5.98995228,2.6882422 5.72210011,1.56391109 5.59249422,0.457940816" id="path2937"></path>
                        </g>
                        <g id="g2939" transform="translate(23.479091, 17.966195) scale(-1, 1) rotate(-180.000000) translate(-23.479091, -17.966195) translate(20.479091, 14.466195)" fill="#003873" fill-rule="nonzero">
                            <path d="M4.32019638,4.32019638 C4.33099687,4.45088232 4.33531707,4.55888723 4.33531707,4.63989091 C4.33531707,5.14535389 4.00590209,5.44560754 3.44427656,5.44560754 C2.84376927,5.44560754 2.41606983,5.04490932 2.24218192,4.32559663 L4.32019638,4.32019638 Z M5.23499796,0.605907542 C4.58912861,0.434179736 3.96486023,0.351015956 3.30387018,0.352085621 C1.1966944,0.353176054 0.0993645168,1.3133397 0.0993645168,3.14834311 C0.0993645168,5.29332062 1.495868,6.87019229 3.39243421,6.87019229 C4.94446476,6.87019229 5.93486978,5.98671213 5.93486978,4.60100915 C5.93486978,4.14090823 5.86682669,3.69268786 5.70373927,3.06085914 L1.95704896,3.06085914 C1.94192827,2.96365472 1.93760808,2.92045275 1.93760808,2.86321015 C1.93760808,2.13849721 2.49599346,1.77128052 3.59116324,1.77128052 C4.26403383,1.77128052 4.87318152,1.89332606 5.5482122,2.16657849 L5.23499796,0.605907542" id="path2941"></path>
                        </g>
                        <g id="g2943" transform="translate(42.517001, 17.738367) scale(-1, 1) rotate(-180.000000) translate(-42.517001, -17.738367) translate(38.517001, 13.738367)" fill="#003873" fill-rule="nonzero">
                            <path d="M5.40024548,4.32019638 C5.40024548,4.97254603 5.13563345,5.58925407 4.3623183,5.58925407 C3.4010746,5.58925407 2.8048875,4.45412247 2.8048875,3.44967681 C2.8048875,2.60291832 3.21314606,2.0348125 3.88709669,2.04777308 C4.29535525,2.04777308 5.16587482,2.60291832 5.33868268,3.57496251 C5.37864449,3.80069277 5.40024548,4.05126416 5.40024548,4.32019638 Z M7.31409247,3.57388246 C7.03327971,1.49694805 5.58277377,0.574586119 3.65380609,0.574586119 C1.52178918,0.574586119 0.659909997,1.86956498 0.659909997,3.45291696 C0.659909997,5.6670176 2.11797628,7.16612575 4.37095869,7.16612575 C6.32584755,7.16612575 7.36485478,5.93162963 7.36485478,4.34827766 C7.36485478,3.96378018 7.36377473,3.93677895 7.31409247,3.57388246" id="path2945"></path>
                        </g>
                        <g id="g2947" transform="translate(46.381792, 20.115179) scale(-1, 1) rotate(-180.000000) translate(-46.381792, -20.115179) translate(45.381792, 19.115179)" fill="#FFFFFF" fill-rule="nonzero">
                            <path d="M1.15043229,1.16663303 L1.21595527,1.16663303 C1.23989636,1.16663303 1.26635756,1.16411292 1.28651848,1.17545343 C1.30541934,1.18679395 1.31675986,1.21073504 1.31675986,1.23341607 C1.31675986,1.25231693 1.30289923,1.2737379 1.28777854,1.2825583 C1.26761762,1.29641893 1.23485613,1.29389882 1.21343516,1.29389882 L1.15043229,1.29389882 L1.15043229,1.16663303 Z M1.15043229,0.881860086 L1.03450703,0.881860086 L1.03450703,1.38210283 L1.24619665,1.38210283 C1.2890386,1.38210283 1.33440066,1.38210283 1.37472249,1.35816174 C1.41504432,1.33044048 1.43898541,1.28129824 1.43898541,1.23215601 C1.43898541,1.17545343 1.40496386,1.12253103 1.3507814,1.10237011 L1.44276558,0.881860086 L1.31297968,0.881860086 L1.23611619,1.07842902 L1.15043229,1.07842902 L1.15043229,0.881860086 Z M1.22855585,0.700411838 C1.46796673,0.700411838 1.66075549,0.891940544 1.66075549,1.13135143 C1.66075549,1.37076231 1.46796673,1.56481113 1.22855585,1.56481113 C0.989144963,1.56481113 0.795096142,1.37076231 0.795096142,1.13135143 C0.795096142,0.891940544 0.989144963,0.700411838 1.22855585,0.700411838 Z M0.657749899,1.13135143 C0.657749899,1.4476258 0.912281469,1.70215737 1.22855585,1.70215737 C1.54231011,1.70215737 1.79936179,1.4476258 1.79936179,1.13135143 C1.79936179,0.816337108 1.54231011,0.56054548 1.22855585,0.56054548 C0.912281469,0.56054548 0.657749899,0.816337108 0.657749899,1.13135143" id="path2949"></path>
                        </g>
                        <g id="g2951" transform="translate(10.751479, 16.554622) scale(-1, 1) rotate(-180.000000) translate(-10.751479, -16.554622) translate(5.251479, 12.554622)" fill="#FFFFFF" fill-rule="nonzero">
                            <polyline id="path2953" points="8.64039276 0 6.75570709 0 7.87679805 5.90246831 5.29656076 0 3.57820265 0 3.26390837 5.87006683 2.13957726 0 0.42985954 0 1.89116597 7.67806902 4.83213965 7.67806902 4.98766672 2.92477295 7.06244103 7.67806902 10.1265403 7.67806902 8.64039276 0"></polyline>
                        </g>
                        <g id="g2955" transform="translate(34.214842, 17.056920) scale(-1, 1) rotate(-180.000000) translate(-34.214842, -17.056920) translate(31.714842, 12.556920)" fill="#FFFFFF" fill-rule="nonzero">
                            <path d="M3.24014729,1.0800491 C2.72496387,0.937482615 2.32102551,0.876999865 1.88684577,0.876999865 C0.921281878,0.876999865 0.395297969,1.36086186 0.395297969,2.24866222 C0.395297969,2.42471022 0.414738853,2.61047866 0.450380473,2.8092077 L0.564865677,3.41943544 L0.654509752,3.91409792 L1.52718942,8.68143463 L3.40215465,8.68143463 L3.12998228,7.24604938 L4.09230602,7.24604938 L3.83417429,5.72966045 L2.8664503,5.72966045 L2.37070776,3.12458203 C2.34910678,3.00901678 2.33938634,2.9236929 2.33938634,2.8664503 C2.33938634,2.54351562 2.53271513,2.40202919 2.98201555,2.40202919 C3.19586527,2.40202919 3.36327288,2.42255012 3.48963863,2.46251194 L3.24014729,1.0800491" id="path2957"></path>
                        </g>
                        <g id="g2959" transform="translate(37.398763, 18.002915) scale(-1, 1) rotate(-180.000000) translate(-37.398763, -18.002915) translate(34.398763, 14.502915)" fill="#003873" fill-rule="nonzero">
                            <path d="M5.40024548,5.40024548 L5.35596346,5.59897451 L5.7329006,6.57641894 C5.64433657,6.58613938 5.6076149,6.58721943 5.58925407,6.59369973 C5.4888095,6.61530071 5.4358871,6.62718125 5.4272467,6.6282613 C5.3700041,6.63906179 5.30736125,6.64446203 5.23715806,6.64446203 C4.61828993,6.64446203 4.17222965,6.37012956 3.59656349,5.63137598 L3.79421247,6.74166645 L1.84148371,6.74166645 L0.68043093,0.506543026 L2.55323606,0.506543026 C2.81136779,1.93868813 2.92477295,2.75412519 3.07705987,3.42807583 C3.32763126,4.55348699 4.16466931,5.06327016 4.76193646,4.949865 C4.82781946,4.93690441 4.88614211,4.93474432 4.97254603,4.90126279 L5.08703124,4.85806083 L5.40024548,5.40024548" id="path2961"></path>
                        </g>
                        <g id="g2963" transform="translate(38.059753, 17.341926) scale(-1, 1) rotate(-180.000000) translate(-38.059753, -17.341926) translate(35.059753, 13.841926)" fill="#FFFFFF" fill-rule="nonzero">
                            <path d="M5.40024548,6.48029457 C5.24147826,6.54185737 5.20583664,6.54185737 5.18639576,6.54833766 C5.08595119,6.56993865 5.03410883,6.58289924 5.02438839,6.58397928 C4.96714579,6.59477978 4.90450294,6.60126007 4.83429975,6.60126007 C4.21543162,6.60126007 3.76937134,6.3247675 3.19370517,5.58601392 L3.36003274,6.53105688 L1.65247512,6.53105688 L0.503302878,0.287293059 L2.3890686,0.287293059 C3.06409928,4.10634666 3.35355244,4.7759771 4.25863358,4.7759771 C4.32559663,4.7759771 4.40444021,4.77057685 4.49732443,4.76085641 L4.7165744,4.7144143 L5.40024548,6.48029457" id="path2965"></path>
                        </g>
                        <g id="g2967" transform="translate(29.403160, 17.183297) scale(-1, 1) rotate(-180.000000) translate(-29.403160, -17.183297) translate(26.403160, 13.683297)" fill="#FFFFFF" fill-rule="nonzero">
                            <path d="M1.0800491,4.40024548 C1.0800491,3.61180964 1.52502932,3.06746489 2.53379518,2.66028638 C3.30495023,2.34707215 3.42375563,2.25418792 3.42375563,1.97013501 C3.42375563,1.58239739 3.08354017,1.40742943 2.3296659,1.40742943 C1.76048003,1.40742943 1.23125597,1.48411292 0.62102823,1.65368063 L0.359656349,0.213975183 L0.443900178,0.199934545 L0.793836085,0.135131599 C0.905081142,0.115690715 1.07248875,0.099489979 1.29173872,0.0822091934 C1.74427929,0.0465675733 2.09529524,0.0292867878 2.34262649,0.0292867878 C4.35475795,0.0292867878 5.28360017,0.687036687 5.28360017,2.11270149 C5.28360017,2.97026047 4.89586255,3.4724833 3.94109915,3.85158054 C3.14078277,4.16695487 3.0489786,4.23715806 3.0489786,4.52769127 C3.0489786,4.86466659 3.36543298,5.03747444 3.98214101,5.03747444 C4.355838,5.03747444 4.86778127,5.00183282 5.35272332,4.94459022 L5.62381564,6.38969591 C5.1302332,6.45665895 4.38175918,6.51174146 3.94649939,6.51174146 C1.81232238,6.51174146 1.07464885,5.55265786 1.0800491,4.40024548" id="path2969"></path>
                        </g>
                        <g id="g2971" transform="translate(17.823891, 17.512575) scale(-1, 1) rotate(-180.000000) translate(-17.823891, -17.512575) translate(14.323891, 14.012575)" fill="#FFFFFF" fill-rule="nonzero">
                            <path d="M4.32019638,3.24014729 C4.1225474,3.26066822 4.03506342,3.26606846 3.89897723,3.26606846 C2.83080868,3.26606846 2.28970408,2.94637393 2.28970408,2.31670531 C2.28970408,1.92788763 2.55323606,1.67839629 2.96581482,1.67839629 C3.73372972,1.67839629 4.28887496,2.31778536 4.32019638,3.24014729 Z M5.69617893,0.457940816 L4.12902769,0.457940816 L4.16466931,1.10597027 C3.68836766,0.594027002 3.05329879,0.349935907 2.18817947,0.349935907 C1.16645302,0.349935907 0.466581209,1.04548752 0.466581209,2.05641348 C0.466581209,3.57604255 1.68487659,4.46276286 3.77693169,4.46276286 C3.99078141,4.46276286 4.26403383,4.44656213 4.54592664,4.41416065 C4.60316924,4.62045003 4.61828993,4.7100941 4.61828993,4.82133916 C4.61828993,5.23499796 4.29103506,5.38944499 3.40971499,5.38944499 C2.87293059,5.38944499 2.26270285,5.32248194 1.84364381,5.21555708 L1.58335197,5.14859404 L1.41486431,5.10755217 L1.67515615,6.51269604 C2.61587891,6.75138689 3.23582709,6.84319107 3.93245876,6.84319107 C5.55145235,6.84319107 6.40793128,6.20920225 6.40793128,5.01250785 C6.40793128,4.70361381 6.37876996,4.46924316 6.25456431,3.77477159 C6.10119734,2.683922 5.82038457,1.56607119 5.69617893,0.457940816" id="path2973"></path>
                        </g>
                        <g id="g2975" transform="translate(24.378709, 17.524455) scale(-1, 1) rotate(-180.000000) translate(-24.378709, -17.524455) translate(20.878709, 14.024455)" fill="#FFFFFF" fill-rule="nonzero">
                            <path d="M4.32019638,4.32019638 C4.33099687,4.45088232 4.33531707,4.55780718 4.33531707,4.63881086 C4.33531707,5.14643394 4.00482205,5.44452749 3.44427656,5.44452749 C2.84592937,5.44452749 2.41498978,5.04382927 2.24110187,4.32451658 L4.32019638,4.32019638 Z M5.32464204,0.605907542 C4.67661258,0.435259785 4.05234421,0.351015956 3.39135416,0.351015956 C1.28525842,0.354256103 0.186848493,1.31225965 0.186848493,3.14834311 C0.186848493,5.29332062 1.58443202,6.87127234 3.48207828,6.87127234 C5.03194873,6.87127234 6.0234338,5.98671213 6.0234338,4.60100915 C6.0234338,4.14198828 5.95647076,3.69268786 5.79122325,3.05977909 L2.04453294,3.05977909 C2.02941225,2.96365472 2.02509205,2.9193727 2.02509205,2.8621301 C2.02509205,2.13957726 2.58563753,1.77020047 3.67972727,1.77020047 C4.3536779,1.77020047 4.96174554,1.89332606 5.63785628,2.16549844 L5.32464204,0.605907542" id="path2977"></path>
                        </g>
                        <g id="g2979" transform="translate(42.978182, 17.244785) scale(-1, 1) rotate(-180.000000) translate(-42.978182, -17.244785) translate(38.978182, 13.244785)" fill="#FFFFFF" fill-rule="nonzero">
                            <path d="M5.40024548,4.32019638 C5.40024548,4.97362608 5.1345534,5.59033412 4.36123825,5.59033412 C3.39999455,5.59033412 2.8027274,4.45304242 2.8027274,3.45075686 C2.8027274,2.60399837 3.21314606,2.03373245 3.88709669,2.04669304 C4.2942752,2.04669304 5.16587482,2.60399837 5.33868268,3.57604255 C5.37864449,3.80177282 5.40024548,4.05234421 5.40024548,4.32019638 Z M7.3410937,3.5220401 C7.05812084,1.44510569 5.60869495,0.522743762 3.67972727,0.522743762 C1.5466303,0.522743762 0.685831175,1.81772263 0.685831175,3.40215465 C0.685831175,5.61517525 2.14389745,7.11320334 4.39687987,7.11320334 C6.35176873,7.11320334 7.38969591,5.87978727 7.38969591,4.2964353 C7.38969591,3.91085777 7.38969591,3.88601664 7.3410937,3.5220401" id="path2981"></path>
                        </g>
                    </g>
                </g>
            </g>
        </g>
    </g>
</svg>