<?xml version="1.0" encoding="UTF-8"?>
<svg width="100px" height="56px" viewBox="0 0 100 56" version="1.1" xmlns="http://www.w3.org/2000/svg" xmlns:xlink="http://www.w3.org/1999/xlink">
    <!-- Generator: Sketch 58 (84663) - https://sketch.com -->
    <title>card-icon3</title>
    <desc>Created with Sketch.</desc>
    <g id="Page-1" stroke="none" stroke-width="1" fill="none" fill-rule="evenodd">
        <g id="buy" transform="translate(-723.000000, -854.000000)">
            <g id="编组-9" transform="translate(523.000000, 854.000000)">
                <g id="card-icon3" transform="translate(200.000000, 0.000000)">
                    <rect id="矩形备份" stroke="#E6E7EB" fill="#FFFFFF" x="0.5" y="0.5" width="99" height="55" rx="2"></rect>
                    <g id="XMLID_328_" transform="translate(24.000000, 12.000000)" fill-rule="nonzero">
                        <rect id="rect19" fill="#FF5F00" x="18.9369907" y="3.7698674" width="13.8082192" height="24.810958"></rect>
                        <path d="M19.8136986,16.1753425 C19.8136986,11.1342466 22.1808219,6.6630137 25.8191781,3.76986301 C23.1452055,1.66575342 19.769863,0.394520548 16.0876712,0.394520548 C7.36438356,0.394520548 0.306849315,7.45205479 0.306849315,16.1753425 C0.306849315,24.8986301 7.36438356,31.9561644 16.0876712,31.9561644 C19.769863,31.9561644 23.1452055,30.6849315 25.8191781,28.5808219 C22.1808219,25.7315068 19.8136986,21.2164384 19.8136986,16.1753425 Z" id="XMLID_330_" fill="#EB001B"></path>
                        <path d="M51.3753425,16.1753425 C51.3753425,24.8986301 44.3178082,31.9561644 35.5945205,31.9561644 C31.9123288,31.9561644 28.5369863,30.6849315 25.8630137,28.5808219 C29.5452055,25.6876712 31.8684932,21.2164384 31.8684932,16.1753425 C31.8684932,11.1342466 29.5013699,6.6630137 25.8630137,3.76986301 C28.5369863,1.66575342 31.9123288,0.394520548 35.5945205,0.394520548 C44.3178082,0.394520548 51.3753425,7.49589041 51.3753425,16.1753425 Z" id="path22" fill="#F79E1B"></path>
                    </g>
                </g>
            </g>
        </g>
    </g>
</svg>